<mxfile host="app.diagrams.net" agent="Mozilla/5.0 (Windows NT 10.0; Win64; x64) AppleWebKit/537.36 (KHTML, like Gecko) Chrome/132.0.0.0 Safari/537.36" version="24.8.1">
  <diagram name="Page-1" id="sRRj6rUY0ZtZrjahvlj3">
    <mxGraphModel dx="1150" dy="1352" grid="1" gridSize="10" guides="1" tooltips="1" connect="1" arrows="1" fold="1" page="1" pageScale="1" pageWidth="1100" pageHeight="850" math="0" shadow="0">
      <root>
        <mxCell id="0" />
        <mxCell id="1" parent="0" />
        <mxCell id="tsfu4aJgw18SiEdj1uBX-9" style="edgeStyle=orthogonalEdgeStyle;rounded=0;orthogonalLoop=1;jettySize=auto;html=1;exitX=0.5;exitY=1;exitDx=0;exitDy=0;entryX=0.5;entryY=0;entryDx=0;entryDy=0;" edge="1" parent="1" source="tsfu4aJgw18SiEdj1uBX-1" target="tsfu4aJgw18SiEdj1uBX-3">
          <mxGeometry relative="1" as="geometry" />
        </mxCell>
        <mxCell id="tsfu4aJgw18SiEdj1uBX-1" value="&lt;font style=&quot;font-size: 18px;&quot;&gt;User Input&lt;/font&gt;" style="rounded=1;whiteSpace=wrap;html=1;" vertex="1" parent="1">
          <mxGeometry x="465" y="20" width="110" height="40" as="geometry" />
        </mxCell>
        <mxCell id="tsfu4aJgw18SiEdj1uBX-10" style="edgeStyle=orthogonalEdgeStyle;rounded=0;orthogonalLoop=1;jettySize=auto;html=1;exitX=0.5;exitY=1;exitDx=0;exitDy=0;entryX=0.5;entryY=0;entryDx=0;entryDy=0;" edge="1" parent="1" source="tsfu4aJgw18SiEdj1uBX-3" target="tsfu4aJgw18SiEdj1uBX-8">
          <mxGeometry relative="1" as="geometry" />
        </mxCell>
        <mxCell id="tsfu4aJgw18SiEdj1uBX-3" value="&lt;font style=&quot;font-size: 18px;&quot;&gt;Text Preprocessing&lt;/font&gt;" style="rounded=1;whiteSpace=wrap;html=1;" vertex="1" parent="1">
          <mxGeometry x="455" y="100" width="130" height="60" as="geometry" />
        </mxCell>
        <mxCell id="tsfu4aJgw18SiEdj1uBX-5" style="edgeStyle=orthogonalEdgeStyle;rounded=0;orthogonalLoop=1;jettySize=auto;html=1;entryX=0.5;entryY=0;entryDx=0;entryDy=0;" edge="1" parent="1" source="tsfu4aJgw18SiEdj1uBX-4" target="tsfu4aJgw18SiEdj1uBX-1">
          <mxGeometry relative="1" as="geometry" />
        </mxCell>
        <mxCell id="tsfu4aJgw18SiEdj1uBX-4" value="&lt;font style=&quot;font-size: 24px;&quot;&gt;Start&lt;/font&gt;" style="ellipse;whiteSpace=wrap;html=1;" vertex="1" parent="1">
          <mxGeometry x="470" y="-80" width="100" height="60" as="geometry" />
        </mxCell>
        <mxCell id="tsfu4aJgw18SiEdj1uBX-13" style="edgeStyle=orthogonalEdgeStyle;rounded=0;orthogonalLoop=1;jettySize=auto;html=1;exitX=0.5;exitY=1;exitDx=0;exitDy=0;entryX=0.5;entryY=0;entryDx=0;entryDy=0;" edge="1" parent="1" source="tsfu4aJgw18SiEdj1uBX-8" target="tsfu4aJgw18SiEdj1uBX-12">
          <mxGeometry relative="1" as="geometry" />
        </mxCell>
        <mxCell id="tsfu4aJgw18SiEdj1uBX-8" value="&lt;font style=&quot;font-size: 18px;&quot;&gt;Text Embedding&lt;/font&gt;" style="rounded=1;whiteSpace=wrap;html=1;" vertex="1" parent="1">
          <mxGeometry x="455" y="200" width="130" height="60" as="geometry" />
        </mxCell>
        <mxCell id="tsfu4aJgw18SiEdj1uBX-15" style="edgeStyle=orthogonalEdgeStyle;rounded=0;orthogonalLoop=1;jettySize=auto;html=1;exitX=0.5;exitY=1;exitDx=0;exitDy=0;entryX=0.5;entryY=0;entryDx=0;entryDy=0;" edge="1" parent="1" source="tsfu4aJgw18SiEdj1uBX-12" target="tsfu4aJgw18SiEdj1uBX-14">
          <mxGeometry relative="1" as="geometry" />
        </mxCell>
        <mxCell id="tsfu4aJgw18SiEdj1uBX-12" value="&lt;font style=&quot;font-size: 18px;&quot;&gt;Context Extraction&lt;/font&gt;" style="rounded=1;whiteSpace=wrap;html=1;" vertex="1" parent="1">
          <mxGeometry x="455" y="300" width="130" height="60" as="geometry" />
        </mxCell>
        <mxCell id="tsfu4aJgw18SiEdj1uBX-17" style="edgeStyle=orthogonalEdgeStyle;rounded=0;orthogonalLoop=1;jettySize=auto;html=1;exitX=0.5;exitY=1;exitDx=0;exitDy=0;entryX=0.5;entryY=0;entryDx=0;entryDy=0;" edge="1" parent="1" source="tsfu4aJgw18SiEdj1uBX-14" target="tsfu4aJgw18SiEdj1uBX-16">
          <mxGeometry relative="1" as="geometry" />
        </mxCell>
        <mxCell id="tsfu4aJgw18SiEdj1uBX-14" value="&lt;font style=&quot;font-size: 18px;&quot;&gt;Image Generation&lt;/font&gt;" style="rounded=1;whiteSpace=wrap;html=1;" vertex="1" parent="1">
          <mxGeometry x="455" y="400" width="130" height="60" as="geometry" />
        </mxCell>
        <mxCell id="tsfu4aJgw18SiEdj1uBX-16" value="&lt;font style=&quot;font-size: 18px;&quot;&gt;User&amp;nbsp;&lt;/font&gt;&lt;div&gt;&lt;font style=&quot;font-size: 18px;&quot;&gt;Feedback&lt;/font&gt;&lt;/div&gt;" style="rounded=1;whiteSpace=wrap;html=1;" vertex="1" parent="1">
          <mxGeometry x="455" y="500" width="130" height="60" as="geometry" />
        </mxCell>
        <mxCell id="tsfu4aJgw18SiEdj1uBX-18" value="&lt;font style=&quot;font-size: 24px;&quot;&gt;End&lt;/font&gt;" style="ellipse;whiteSpace=wrap;html=1;" vertex="1" parent="1">
          <mxGeometry x="470" y="590" width="100" height="60" as="geometry" />
        </mxCell>
      </root>
    </mxGraphModel>
  </diagram>
</mxfile>
